<?xml version="1.0" encoding="iso-8859-1"?>
<!-- Generator: Adobe Illustrator 19.0.0, SVG Export Plug-In . SVG Version: 6.00 Build 0)  -->
<svg version="1.1" id="Layer_1" xmlns="http://www.w3.org/2000/svg" xmlns:xlink="http://www.w3.org/1999/xlink" x="0px" y="0px"
	 viewBox="0 0 360 360" style="enable-background:new 0 0 360 360;" xml:space="preserve">
<g id="XMLID_1417_">
	<rect id="XMLID_1418_" y="160" style="fill:#006C70;" width="40" height="30"/>
	<rect id="XMLID_1419_" x="320" y="160" style="fill:#00A0A6;" width="40" height="30"/>
	<rect id="XMLID_1420_" x="20" y="100" style="fill:#FFDA44;" width="320" height="210"/>
	<rect id="XMLID_1421_" x="20" y="100" style="fill:#FF9811;" width="160" height="210"/>
	<circle id="XMLID_1422_" style="fill:#00A0A6;" cx="60" cy="110" r="30"/>
	<rect id="XMLID_1423_" x="270" y="80" style="fill:#00D7DF;" width="50" height="30"/>
	<polygon id="XMLID_1424_" style="fill:#EA348B;" points="260,100 240,50 180,50 120,50 100,100 20,100 20,160 180,160 340,160 
		340,100 	"/>
	<polygon id="XMLID_1425_" style="fill:#AF2768;" points="120,50 100,100 20,100 20,160 180,160 180,100 180,50 	"/>
	<circle id="XMLID_1426_" style="fill:#006C70;" cx="300" cy="200" r="10"/>
	<circle id="XMLID_1427_" style="fill:#804C09;" cx="180" cy="220" r="90"/>
	<path id="XMLID_1428_" style="fill:#402604;" d="M180,310c-49.706,0-90-40.295-90-90c0-49.706,40.294-90,90-90"/>
	<circle id="XMLID_1429_" style="fill:#00D7DF;" cx="180" cy="220" r="60"/>
	<path id="XMLID_1430_" style="fill:#00A0A6;" d="M180,280c-33.138,0-60-26.862-60-60s26.862-60,60-60"/>
	<polygon id="XMLID_1431_" style="fill:#CCF8F3;" points="219.689,80 180,80 140.311,80 132.311,100 180,100 227.689,100 	"/>
	<polygon id="XMLID_1432_" style="fill:#00D7DF;" points="132.311,100 140.311,80 180,80 180,100 	"/>
</g>
<g>
</g>
<g>
</g>
<g>
</g>
<g>
</g>
<g>
</g>
<g>
</g>
<g>
</g>
<g>
</g>
<g>
</g>
<g>
</g>
<g>
</g>
<g>
</g>
<g>
</g>
<g>
</g>
<g>
</g>
</svg>
